<svg id="Capa_1" enable-background="new 0 0 512 512" height="512" viewBox="0 0 512 512" width="512" xmlns="http://www.w3.org/2000/svg"><g><g><path d="m361.496 512c-20.649 0-38.647-14.053-43.654-34.085l-61.842-247.369-61.841 247.369c-5.008 20.032-23.007 34.085-43.655 34.085s-38.647-14.053-43.654-34.085l-105.496-421.991c-6.027-24.11 8.631-48.542 32.741-54.569 24.105-6.029 48.541 8.631 54.568 32.742l61.841 247.369 61.841-247.369c5.008-20.033 23.007-34.086 43.655-34.086 20.649 0 38.647 14.053 43.654 34.085l61.841 247.369 61.841-247.369c6.027-24.11 30.459-38.772 54.568-32.741 24.109 6.027 38.769 30.459 32.741 54.569l-105.495 421.991c-5.008 20.032-23.006 34.085-43.654 34.085z" fill="#fff16b"/></g><g><path d="m477.905 1.355c-24.109-6.03-48.541 8.631-54.568 32.741l-61.841 247.369-61.842-247.368c-5.007-20.033-23.005-34.086-43.654-34.086v230.535l61.841 247.369c5.008 20.032 23.006 34.085 43.655 34.085 20.648 0 38.647-14.053 43.654-34.085l105.496-421.991c6.028-24.11-8.632-48.542-32.741-54.569z" fill="#ffb454"/></g></g></svg>